<svg xmlns="http://www.w3.org/2000/svg" style="display: none;"><symbol id="youtube" viewBox="0 0 291.319 291.319"><title>youtube</title><path style="fill:#C4302B;" d="M145.659,0c80.45,0,145.66,65.219,145.66,145.66s-65.21,145.659-145.66,145.659S0,226.1,0,145.66 S65.21,0,145.659,0z"/><path style="fill:#FFFFFF;" d="M142.145,118.357c4.606,0,8.212-1.466,10.852-3.55c2.622-2.094,3.933-4.943,3.933-8.603V84.118 c0-3.25-1.338-5.936-4.006-8.002c-2.686-2.067-6.118-3.095-10.324-3.095c-4.597,0-8.275,0.974-10.997,2.931 c-2.731,1.966-4.097,4.588-4.097,7.911v22.158c0,3.641,1.329,6.518,3.987,8.676S137.712,118.357,142.145,118.357z M137.33,84.938 c0-0.838,0.437-1.511,1.302-2.048c0.874-0.519,2.003-0.774,3.387-0.774c1.511,0,2.731,0.255,3.651,0.774 c0.929,0.537,1.384,1.211,1.384,2.048v20.993c0,1.038-0.455,1.857-1.366,2.449c-0.91,0.583-2.13,0.883-3.669,0.883 c-1.502,0-2.667-0.282-3.478-0.874c-0.801-0.574-1.211-1.393-1.211-2.458V84.938z M172.625,118.33c1.62,0,3.268-0.929,4.98-1.857 c1.73-0.947,3.377-2.331,4.962-4.133v4.907h8.603v-44.29h-8.603v33.62c-0.801,0.956-1.693,1.748-2.649,2.376 c-0.974,0.619-1.775,0.938-2.403,0.938c-0.81,0-1.402-0.228-1.748-0.71c-0.364-0.464-0.564-1.22-0.564-2.258V72.966h-8.585v37.007 c0,2.64,0.519,4.616,1.511,5.927C169.138,117.219,170.631,118.33,172.625,118.33z M197.642,136.638H93.677 c-16.532,0-29.924,12.882-29.924,28.75v24.307c0,15.877,13.392,28.759,29.924,28.759h103.964c16.523,0,29.924-12.882,29.924-28.759 v-24.307C227.566,149.519,214.165,136.638,197.642,136.638z M109.144,161.309H99.95v38.072h-8.894v-38.072h-9.195v-6.491h27.284 C109.144,154.818,109.144,161.309,109.144,161.309z M136.583,199.909h-9.586v-3.951c-1.784,1.457-3.614,2.576-5.544,3.323 c-1.903,0.783-3.76,1.156-5.562,1.156c-2.221,0-3.878-0.537-5.007-1.62c-1.111-1.065-1.684-2.667-1.684-4.807v-30.06h9.586v27.575 c0,0.856,0.2,1.457,0.583,1.839c0.419,0.391,1.083,0.564,1.976,0.564c0.692,0,1.602-0.246,2.676-0.756 c1.083-0.501,2.076-1.138,2.977-1.93V163.94h9.586C136.583,163.94,136.583,199.909,136.583,199.909z M172.87,193.063 c0,2.358-0.747,4.151-2.23,5.417c-1.466,1.265-3.632,1.884-6.427,1.884c-1.866,0-3.523-0.237-4.962-0.719 c-1.447-0.482-2.813-1.229-4.051-2.258v2.549h-9.568v-45.118h9.568v14.539c1.293-1.001,2.649-1.784,4.06-2.312 c1.447-0.537,2.904-0.792,4.37-0.792c2.995,0,5.28,0.701,6.855,2.112c1.593,1.42,2.385,3.505,2.385,6.227 C172.87,174.591,172.87,193.063,172.87,193.063z M209.34,182.912h-17.661v6.5c0,1.812,0.291,3.068,0.901,3.778 c0.619,0.701,1.666,1.047,3.132,1.047c1.548,0,2.604-0.3,3.223-0.892c0.601-0.601,0.929-1.903,0.929-3.942v-1.566h9.495v1.766 c0,3.532-1.138,6.191-3.487,7.984c-2.312,1.784-5.772,2.676-10.369,2.676c-4.142,0-7.401-0.947-9.777-2.84 c-2.367-1.875-3.569-4.497-3.569-7.811v-15.495c0-2.977,1.311-5.435,3.933-7.319c2.613-1.875,5.963-2.813,10.105-2.813 c4.224,0,7.474,0.874,9.75,2.613c2.267,1.739,3.396,4.251,3.396,7.511C209.34,174.109,209.34,182.912,209.34,182.912z M103.992,118.458h10.861V91.993l12.645-37.325h-11.043l-6.719,25.509h-0.692l-7.046-25.509H91.046l12.945,38.518 C103.992,93.186,103.992,118.458,103.992,118.458z M159.16,171.532l-2.012,0.328l-1.957,1.011v20.738 c0.765,0.537,1.52,0.947,2.249,1.174l2.285,0.355c1.165,0,2.012-0.228,2.558-0.71c0.537-0.464,0.819-1.229,0.819-2.276v-17.197 c0-1.138-0.319-1.985-0.992-2.558C161.418,171.824,160.444,171.532,159.16,171.532z"/><path style="fill:#FFFFFF;" d="M196.222,170.021c-1.475,0-2.522,0.31-3.168,0.947c-0.637,0.61-0.947,1.648-0.947,3.095v3.478h8.166 v-3.478c0-1.447-0.337-2.476-0.974-3.095C198.67,170.331,197.624,170.021,196.222,170.021z"/></symbol><symbol id="vk" viewBox="0 0 112.196 112.196"><title>vk</title><g> <circle id="XMLID_11_" style="fill:#4D76A1;" cx="56.098" cy="56.098" r="56.098"/> </g><path style="fill-rule:evenodd;clip-rule:evenodd;fill:#FFFFFF;" d="M53.979,80.702h4.403c0,0,1.33-0.146,2.009-0.878 c0.625-0.672,0.605-1.934,0.605-1.934s-0.086-5.908,2.656-6.778c2.703-0.857,6.174,5.71,9.853,8.235 c2.782,1.911,4.896,1.492,4.896,1.492l9.837-0.137c0,0,5.146-0.317,2.706-4.363c-0.2-0.331-1.421-2.993-7.314-8.463 c-6.168-5.725-5.342-4.799,2.088-14.702c4.525-6.031,6.334-9.713,5.769-11.29c-0.539-1.502-3.867-1.105-3.867-1.105l-11.076,0.069 c0,0-0.821-0.112-1.43,0.252c-0.595,0.357-0.978,1.189-0.978,1.189s-1.753,4.667-4.091,8.636c-4.932,8.375-6.904,8.817-7.71,8.297 c-1.875-1.212-1.407-4.869-1.407-7.467c0-8.116,1.231-11.5-2.397-12.376c-1.204-0.291-2.09-0.483-5.169-0.514 c-3.952-0.041-7.297,0.012-9.191,0.94c-1.26,0.617-2.232,1.992-1.64,2.071c0.732,0.098,2.39,0.447,3.269,1.644 c1.135,1.544,1.095,5.012,1.095,5.012s0.652,9.554-1.523,10.741c-1.493,0.814-3.541-0.848-7.938-8.446 c-2.253-3.892-3.954-8.194-3.954-8.194s-0.328-0.804-0.913-1.234c-0.71-0.521-1.702-0.687-1.702-0.687l-10.525,0.069 c0,0-1.58,0.044-2.16,0.731c-0.516,0.611-0.041,1.875-0.041,1.875s8.24,19.278,17.57,28.993 C44.264,81.287,53.979,80.702,53.979,80.702L53.979,80.702z"/></symbol><symbol id="google-plus" viewBox="0 0 112.196 112.196"><title>google-plus</title><g> <circle id="XMLID_30_" style="fill:#DC4E41;" cx="56.098" cy="56.097" r="56.098"/> </g><g> <path style="fill:#DC4E41;" d="M19.531,58.608c-0.199,9.652,6.449,18.863,15.594,21.867c8.614,2.894,19.205,0.729,24.937-6.648 c4.185-5.169,5.136-12.06,4.683-18.498c-7.377-0.066-14.754-0.044-22.12-0.033c-0.012,2.628,0,5.246,0.011,7.874 c4.417,0.122,8.835,0.066,13.252,0.155c-1.115,3.821-3.655,7.377-7.51,8.757c-7.443,3.28-16.94-1.005-19.282-8.813 c-2.827-7.477,1.801-16.5,9.442-18.675c4.738-1.667,9.619,0.21,13.673,2.673c2.054-1.922,3.976-3.976,5.864-6.052 c-4.606-3.854-10.525-6.217-16.61-5.698C29.526,35.659,19.078,46.681,19.531,58.608z"/> <path style="fill:#DC4E41;" d="M79.102,48.668c-0.022,2.198-0.045,4.407-0.056,6.604c-2.209,0.022-4.406,0.033-6.604,0.044 c0,2.198,0,4.384,0,6.582c2.198,0.011,4.407,0.022,6.604,0.045c0.022,2.198,0.022,4.395,0.044,6.604c2.187,0,4.385-0.011,6.582,0 c0.012-2.209,0.022-4.406,0.045-6.615c2.197-0.011,4.406-0.022,6.604-0.033c0-2.198,0-4.384,0-6.582 c-2.197-0.011-4.406-0.022-6.604-0.044c-0.012-2.198-0.033-4.407-0.045-6.604C83.475,48.668,81.288,48.668,79.102,48.668z"/> <g> <path style="fill:#FFFFFF;" d="M19.531,58.608c-0.453-11.927,9.994-22.949,21.933-23.092c6.085-0.519,12.005,1.844,16.61,5.698 c-1.889,2.077-3.811,4.13-5.864,6.052c-4.054-2.463-8.935-4.34-13.673-2.673c-7.642,2.176-12.27,11.199-9.442,18.675 c2.342,7.808,11.839,12.093,19.282,8.813c3.854-1.38,6.395-4.936,7.51-8.757c-4.417-0.088-8.835-0.033-13.252-0.155 c-0.011-2.628-0.022-5.246-0.011-7.874c7.366-0.011,14.743-0.033,22.12,0.033c0.453,6.439-0.497,13.33-4.683,18.498 c-5.732,7.377-16.322,9.542-24.937,6.648C25.981,77.471,19.332,68.26,19.531,58.608z"/> <path style="fill:#FFFFFF;" d="M79.102,48.668c2.187,0,4.373,0,6.57,0c0.012,2.198,0.033,4.407,0.045,6.604 c2.197,0.022,4.406,0.033,6.604,0.044c0,2.198,0,4.384,0,6.582c-2.197,0.011-4.406,0.022-6.604,0.033 c-0.022,2.209-0.033,4.406-0.045,6.615c-2.197-0.011-4.396,0-6.582,0c-0.021-2.209-0.021-4.406-0.044-6.604 c-2.197-0.023-4.406-0.033-6.604-0.045c0-2.198,0-4.384,0-6.582c2.198-0.011,4.396-0.022,6.604-0.044 C79.057,53.075,79.079,50.866,79.102,48.668z"/> </g> </g></symbol><symbol id="instagram" viewBox="0 0 89.758 89.758"><title>instagram</title><path style="fill:#6A453B;" d="M58.255,23.88H31.503c-4.27,0-7.744,3.474-7.744,7.744v26.752c0,4.27,3.474,7.745,7.744,7.745 h26.752c4.27,0,7.745-3.474,7.745-7.745V31.624C66,27.354,62.526,23.88,58.255,23.88z M44.879,58.906 c-7.667,0-13.905-6.238-13.905-13.906c0-7.667,6.238-13.905,13.905-13.905c7.668,0,13.906,6.238,13.906,13.905 C58.785,52.667,52.546,58.906,44.879,58.906z M59.232,33.97c-1.815,0-3.291-1.476-3.291-3.29c0-1.814,1.476-3.29,3.291-3.29 c1.814,0,3.29,1.476,3.29,3.29C62.522,32.494,61.046,33.97,59.232,33.97z"/><path style="fill:#6A453B;" d="M44.879,36.971c-4.426,0-8.03,3.602-8.03,8.028c0,4.428,3.604,8.031,8.03,8.031 c4.428,0,8.029-3.603,8.029-8.031C52.908,40.574,49.306,36.971,44.879,36.971z"/><path style="fill:#6A453B;" d="M44.879,0C20.094,0,0,20.094,0,44.879c0,24.785,20.094,44.879,44.879,44.879 c24.785,0,44.879-20.094,44.879-44.879C89.758,20.094,69.664,0,44.879,0z M71.875,58.376c0,7.511-6.109,13.62-13.62,13.62H31.503 c-7.51,0-13.62-6.109-13.62-13.62V31.624c0-7.51,6.11-13.62,13.62-13.62h26.752c7.511,0,13.62,6.11,13.62,13.62V58.376z"/></symbol><symbol id="twitter" viewBox="0 0 112.197 112.197"><title>twitter</title><circle style="fill:#55ACEE;" cx="56.099" cy="56.098" r="56.098"/><g> <path style="fill:#F1F2F2;" d="M90.461,40.316c-2.404,1.066-4.99,1.787-7.702,2.109c2.769-1.659,4.894-4.284,5.897-7.417 c-2.591,1.537-5.462,2.652-8.515,3.253c-2.446-2.605-5.931-4.233-9.79-4.233c-7.404,0-13.409,6.005-13.409,13.409 c0,1.051,0.119,2.074,0.349,3.056c-11.144-0.559-21.025-5.897-27.639-14.012c-1.154,1.98-1.816,4.285-1.816,6.742 c0,4.651,2.369,8.757,5.965,11.161c-2.197-0.069-4.266-0.672-6.073-1.679c-0.001,0.057-0.001,0.114-0.001,0.17 c0,6.497,4.624,11.916,10.757,13.147c-1.124,0.308-2.311,0.471-3.532,0.471c-0.866,0-1.705-0.083-2.523-0.239 c1.706,5.326,6.657,9.203,12.526,9.312c-4.59,3.597-10.371,5.74-16.655,5.74c-1.08,0-2.15-0.063-3.197-0.188 c5.931,3.806,12.981,6.025,20.553,6.025c24.664,0,38.152-20.432,38.152-38.153c0-0.581-0.013-1.16-0.039-1.734 C86.391,45.366,88.664,43.005,90.461,40.316L90.461,40.316z"/> </g></symbol><symbol id="facebook" viewBox="0 0 112.196 112.196"><title>facebook</title><circle style="fill:#3B5998;" cx="56.098" cy="56.098" r="56.098"/><path style="fill:#FFFFFF;" d="M70.201,58.294h-10.01v36.672H45.025V58.294h-7.213V45.406h7.213v-8.34 c0-5.964,2.833-15.303,15.301-15.303L71.56,21.81v12.51h-8.151c-1.337,0-3.217,0.668-3.217,3.513v7.585h11.334L70.201,58.294z"/></symbol><symbol id="location-pointer" viewBox="0 0 32 32"><title>location-pointer</title><path style="fill:#030104;" d="M23.07,2.929c-3.906-3.906-10.234-3.906-14.141,0c-3.906,3.904-3.906,10.238,0,14.141 c0,0,7.066,6.93,7.066,14.93c0-8,7.074-14.93,7.074-14.93C26.977,13.168,26.977,6.833,23.07,2.929z M15.996,14.005 c-2.207,0-3.996-1.789-3.996-4s1.789-4,3.996-4c2.215,0,4.004,1.789,4.004,4S18.211,14.005,15.996,14.005z"/></symbol></svg>